<svg xmlns="http://www.w3.org/2000/svg" width="430" height="430" style="width:100%;height:100%;transform:translate3d(0,0,0);content-visibility:visible" viewBox="0 0 430 430"><defs><clipPath id="a"><path d="M0 0h430v430H0z"></path></clipPath><clipPath id="e"><path d="M0 0h430v430H0z"></path></clipPath><clipPath id="d"><path d="M0 0h430v430H0z"></path></clipPath><clipPath id="c"><path d="M0 0h430v430H0z"></path></clipPath><clipPath id="b"><path d="M0 0h430v430H0z"></path></clipPath></defs><g fill="none" clip-path="url(#a)"><g clip-path="url(#b)" style="display:none"><path class="secondary" style="display:none"></path><path class="primary" style="display:none"></path></g><g clip-path="url(#c)" style="display:none"><path class="secondary" style="display:none"></path><path class="primary" style="display:none"></path></g><g stroke="#FFF" stroke-linecap="round" stroke-linejoin="round" stroke-width="12" clip-path="url(#d)" style="display:block"><path d="M44.446-66.518a79.998 79.998 0 0 0-101.012 9.952A79.998 79.998 0 1 0 56.569 56.569 80.005 80.005 0 0 0 73.91-30.615a80.001 80.001 0 0 0-29.464-35.903z" class="secondary" style="display:block" transform="translate(215 214)"></path><path d="m141.409 25.241 8.727 5.041s0 0 0 0a22.3 22.3 0 0 1 10.411 13.542 22.32 22.32 0 0 1-2.221 16.937l-26.515 45.924a22.325 22.325 0 0 1-30.497 8.172l-8.754-5.059a143.414 143.414 0 0 1-43.718 25.286v10.108a22.302 22.302 0 0 1-13.778 20.612 22.303 22.303 0 0 1-8.539 1.696h-53.029a22.303 22.303 0 0 1-15.779-6.531 22.302 22.302 0 0 1-6.537-15.777v-10.073a143.416 143.416 0 0 1-43.719-25.285l-8.754 5.059a22.325 22.325 0 0 1-30.497-8.172l-26.523-45.924a22.315 22.315 0 0 1-2.238-16.943A22.31 22.31 0 0 1-150.142 30.3l8.727-5.041a145.097 145.097 0 0 1 0-50.518l-8.727-5.041a22.294 22.294 0 0 1-10.409-13.554 22.306 22.306 0 0 1 2.238-16.943l26.514-45.924a22.325 22.325 0 0 1 30.497-8.172l8.754 5.059a143.416 143.416 0 0 1 43.719-25.285v-10.073a22.302 22.302 0 0 1 6.537-15.777 22.3 22.3 0 0 1 15.779-6.531h53.02a22.307 22.307 0 0 1 22.317 22.308v10.037a143.41 143.41 0 0 1 43.718 25.285l8.754-5.059a22.325 22.325 0 0 1 30.497 8.172l26.515 45.942a22.313 22.313 0 0 1-1.618 24.757 22.294 22.294 0 0 1-6.554 5.74l-8.727 5.041a145.097 145.097 0 0 1 0 50.518z" class="primary" style="display:block" transform="rotate(-120 169.576 45.095)"></path></g><g clip-path="url(#e)" style="display:none"><path class="secondary" style="display:none"></path><path class="primary" style="display:none"></path></g></g></svg>